<svg id="Layer_1" data-name="Layer 1" xmlns="http://www.w3.org/2000/svg" xmlns:xlink="http://www.w3.org/1999/xlink" viewBox="0 0 181.41 137.62"><defs><style>.cls-1{fill:url(#linear-gradient);}.cls-2{fill:url(#linear-gradient-2);}.cls-3{fill:url(#linear-gradient-3);}.cls-4{fill:url(#linear-gradient-4);}.cls-5{fill:url(#linear-gradient-5);}.cls-6{fill:url(#linear-gradient-6);}.cls-7{fill:url(#linear-gradient-7);}.cls-8{fill:url(#linear-gradient-8);}.cls-9{fill:url(#linear-gradient-9);}.cls-10{fill:url(#linear-gradient-10);}.cls-11,.cls-13,.cls-14,.cls-16,.cls-18,.cls-20,.cls-21,.cls-23,.cls-28{fill-rule:evenodd;}.cls-11{fill:url(#linear-gradient-11);}.cls-12{mask:url(#mask);}.cls-13{fill:#002b01;}.cls-14{fill:url(#linear-gradient-12);}.cls-15{mask:url(#mask-2);}.cls-16{fill:#51f5ea;}.cls-17{mask:url(#mask-3);}.cls-18{fill:#005b50;}.cls-19{mask:url(#mask-4);}.cls-20{fill:#5efaf7;}.cls-21{fill:url(#linear-gradient-13);}.cls-22{mask:url(#mask-5);}.cls-23{fill:url(#linear-gradient-14);}.cls-24{mask:url(#mask-6);}.cls-25{mask:url(#mask-7);}.cls-26{mask:url(#mask-8);}.cls-27{mask:url(#mask-9);}.cls-28{fill:#005c01;}.cls-29{mask:url(#mask-10);}</style><linearGradient id="linear-gradient" x1="21765.66" y1="-5041.68" x2="24250.57" y2="-5194.32" gradientTransform="matrix(0.07, 0, 0, -0.07, -309.95, -92.85)" gradientUnits="userSpaceOnUse"><stop offset="0" stop-color="#fff"/><stop offset="1" stop-color="#fff" stop-opacity="0"/></linearGradient><linearGradient id="linear-gradient-2" x1="22151.5" y1="-5083.07" x2="24167.12" y2="-5085.22" xlink:href="#linear-gradient"/><linearGradient id="linear-gradient-3" x1="22477.07" y1="-4256.22" x2="22724.39" y2="-4285.58" xlink:href="#linear-gradient"/><linearGradient id="linear-gradient-4" x1="22480.83" y1="-4270.05" x2="22742.73" y2="-4292.74" xlink:href="#linear-gradient"/><linearGradient id="linear-gradient-5" x1="25149.6" y1="-4009.76" x2="22664.68" y2="-3857.11" xlink:href="#linear-gradient"/><linearGradient id="linear-gradient-6" x1="24763.75" y1="-3968.37" x2="22748.15" y2="-3966.21" xlink:href="#linear-gradient"/><linearGradient id="linear-gradient-7" x1="24438.18" y1="-4795.22" x2="24190.87" y2="-4765.85" xlink:href="#linear-gradient"/><linearGradient id="linear-gradient-8" x1="24434.43" y1="-4781.38" x2="24172.53" y2="-4758.69" xlink:href="#linear-gradient"/><linearGradient id="linear-gradient-9" x1="24109.98" y1="-4961.45" x2="24046.52" y2="-5013.49" xlink:href="#linear-gradient"/><linearGradient id="linear-gradient-10" x1="22805.28" y1="-4089.99" x2="22868.74" y2="-4037.94" xlink:href="#linear-gradient"/><linearGradient id="linear-gradient-11" x1="22865.94" y1="-5173.44" x2="23388.26" y2="-3816.97" gradientTransform="matrix(0.07, 0, 0, -0.07, -309.95, -92.85)" gradientUnits="userSpaceOnUse"><stop offset="0" stop-color="#007c21"/><stop offset="1" stop-color="#47ebe0"/></linearGradient><mask id="mask" x="31.22" y="103.8" width="83.67" height="17.12" maskUnits="userSpaceOnUse"><g transform="translate(-1288.3 -164.19)"><g id="id0"><rect class="cls-1" x="1319.52" y="267.99" width="83.67" height="17.12"/></g></g></mask><linearGradient id="linear-gradient-12" x1="22707.56" y1="-4903.27" x2="23966.94" y2="-5226.01" xlink:href="#linear-gradient-11"/><mask id="mask-2" x="31.22" y="89.71" width="107.29" height="38.65" maskUnits="userSpaceOnUse"><g transform="translate(-1288.3 -164.19)"><g id="id2"><rect class="cls-2" x="1319.52" y="253.9" width="107.29" height="38.65"/></g></g></mask><mask id="mask-3" x="31.69" y="21.14" width="10.7" height="60.56" maskUnits="userSpaceOnUse"><g transform="translate(-1288.3 -164.19)"><g id="id4"><rect class="cls-3" x="1319.99" y="185.33" width="10.7" height="60.56"/></g></g></mask><mask id="mask-4" x="30.58" y="21.27" width="4.53" height="60.43" maskUnits="userSpaceOnUse"><g transform="translate(-1288.3 -164.19)"><g id="id6"><rect class="cls-4" x="1318.87" y="185.46" width="4.53" height="60.43"/></g></g></mask><linearGradient id="linear-gradient-13" x1="23762.38" y1="-3788.54" x2="24284.7" y2="-5145.01" xlink:href="#linear-gradient-11"/><mask id="mask-5" x="66.52" y="16.7" width="83.67" height="17.12" maskUnits="userSpaceOnUse"><g transform="translate(-1288.3 -164.19)"><g id="id8"><rect class="cls-5" x="1354.81" y="180.89" width="83.67" height="17.12"/></g></g></mask><linearGradient id="linear-gradient-14" x1="22784.46" y1="-4065.67" x2="24043.85" y2="-3742.93" xlink:href="#linear-gradient-11"/><mask id="mask-6" x="42.9" y="9.26" width="107.29" height="38.65" maskUnits="userSpaceOnUse"><g transform="translate(-1288.3 -164.19)"><g id="id10"><rect class="cls-6" x="1331.19" y="173.45" width="107.29" height="38.65"/></g></g></mask><mask id="mask-7" x="139.02" y="55.92" width="10.7" height="60.56" maskUnits="userSpaceOnUse"><g transform="translate(-1288.3 -164.19)"><g id="id12"><rect class="cls-7" x="1427.31" y="220.11" width="10.7" height="60.56"/></g></g></mask><mask id="mask-8" x="146.3" y="55.92" width="4.53" height="60.43" maskUnits="userSpaceOnUse"><g transform="translate(-1288.3 -164.19)"><g id="id14"><rect class="cls-8" x="1434.6" y="220.11" width="4.53" height="60.43"/></g></g></mask><mask id="mask-9" x="127.09" y="89.71" width="16.73" height="24.6" maskUnits="userSpaceOnUse"><g transform="translate(-1288.3 -164.19)"><g id="id16"><rect class="cls-9" x="1415.38" y="253.9" width="16.73" height="24.6"/></g></g></mask><mask id="mask-10" x="37.59" y="23.32" width="16.73" height="24.6" maskUnits="userSpaceOnUse"><g transform="translate(-1288.3 -164.19)"><g id="id18"><rect class="cls-10" x="1325.89" y="187.51" width="16.73" height="24.6"/></g></g></mask></defs><g id="Layer_1-2" data-name="Layer_1"><g id="_1316495716672" data-name=" 1316495716672"><path class="cls-11" d="M1326,188.76l-.74-1.28a3.82,3.82,0,0,0-6.62,0l-14.91,25.84-14.92,25.83a3.82,3.82,0,0,0,3.31,5.73h18.93a68.26,68.26,0,0,0,8.7,23.35c16,18.17,50.24,24.73,83.18,2.77a45,45,0,0,1-55.85-6.26,45.47,45.47,0,0,1-7.07-9.18,44.43,44.43,0,0,1-4.5-10.68h16.27a3.82,3.82,0,0,0,3.31-5.73l-14.92-25.84-1-1.67L1326,188.76Z" transform="translate(-1288.3 -164.19)"/><g class="cls-12"><path class="cls-13" d="M1319.76,268.23C1335.73,286.4,1370,293,1403,271a44.83,44.83,0,0,1-24,6.93c-1.06,0-2.11,0-3.15-.11C1353.57,285,1332.34,280,1319.76,268.23Z" transform="translate(-1288.3 -164.19)"/></g><path class="cls-14" d="M1319.76,268.23a68.94,68.94,0,0,0,100.68,19.69,69.86,69.86,0,0,0,7.23-6.3c1.47-1.46,2.87-3,4.2-4.59l-13-22.46-.24-.43-.22.4A45.28,45.28,0,0,1,1403,271c-33,22-67.22,15.4-83.19-2.77Z" transform="translate(-1288.3 -164.19)"/><g class="cls-15"><path class="cls-16" d="M1426.56,267.84l-7.66-13.27-.25-.43-.21.4A45.28,45.28,0,0,1,1403,271c-33,22-67.22,15.4-83.19-2.77C1343.25,301.1,1395.06,299.68,1426.56,267.84Z" transform="translate(-1288.3 -164.19)"/></g><g class="cls-17"><path class="cls-18" d="M1323.16,245.64q.94-30.66,7.29-49.19l-4.44-7.69-.74-1.28a3.74,3.74,0,0,0-3.31-1.91q-4,35.46,1.2,60.07Z" transform="translate(-1288.3 -164.19)"/></g><g class="cls-19"><path class="cls-20" d="M1323.16,245.64q-5.15-24.42-1.26-59.52a3.42,3.42,0,0,0-1-.42q-4.55,35.27,2.22,59.94Z" transform="translate(-1288.3 -164.19)"/></g><path class="cls-21" d="M1432,277.24l.74,1.28a3.82,3.82,0,0,0,6.62,0l14.91-25.84,14.92-25.83a3.82,3.82,0,0,0-3.31-5.73h-18.93a68.26,68.26,0,0,0-8.7-23.35c-16-18.17-50.24-24.73-83.18-2.77a45,45,0,0,1,55.85,6.26,45.47,45.47,0,0,1,7.07,9.18,44.43,44.43,0,0,1,4.5,10.68h-16.27a3.82,3.82,0,0,0-3.31,5.73l14.92,25.84,1,1.67L1432,277.24Z" transform="translate(-1288.3 -164.19)"/><g class="cls-22"><path class="cls-13" d="M1438.24,197.77c-16-18.17-50.24-24.73-83.19-2.77a44.83,44.83,0,0,1,24-6.93c1.06,0,2.11,0,3.15.11,22.23-7.14,43.45-2.16,56,9.59Z" transform="translate(-1288.3 -164.19)"/></g><path class="cls-23" d="M1438.24,197.77a68.94,68.94,0,0,0-100.68-19.69,69.86,69.86,0,0,0-7.23,6.3c-1.47,1.46-2.87,3-4.2,4.59l13,22.46.25.43.21-.4A45.28,45.28,0,0,1,1355.05,195c33-22,67.22-15.4,83.19,2.77Z" transform="translate(-1288.3 -164.19)"/><g class="cls-24"><path class="cls-16" d="M1331.44,198.16l7.66,13.27.25.43.21-.4A45.28,45.28,0,0,1,1355.05,195c33-22,67.22-15.4,83.19,2.77C1414.75,164.9,1362.94,166.32,1331.44,198.16Z" transform="translate(-1288.3 -164.19)"/></g><g class="cls-25"><path class="cls-18" d="M1434.84,220.36q-.93,30.66-7.29,49.19l4.44,7.69.74,1.28a3.72,3.72,0,0,0,3.31,1.91q4-35.46-1.2-60.07Z" transform="translate(-1288.3 -164.19)"/></g><g class="cls-26"><path class="cls-20" d="M1434.84,220.36q5.15,24.42,1.26,59.52a3.42,3.42,0,0,0,1,.42q4.55-35.26-2.22-59.94Z" transform="translate(-1288.3 -164.19)"/></g><g class="cls-27"><path class="cls-28" d="M1430.83,278.25c.35-.4.7-.81,1-1.22l-13-22.46-.24-.43-.22.4a44.76,44.76,0,0,1-2.81,4.47l15.2,19.24Z" transform="translate(-1288.3 -164.19)"/></g><g class="cls-29"><path class="cls-28" d="M1327.17,187.75c-.35.4-.7.81-1,1.22l13,22.46.25.43.21-.4a44.76,44.76,0,0,1,2.81-4.47Z" transform="translate(-1288.3 -164.19)"/></g></g></g></svg>